<svg width="400" height="180" viewBox="0 0 400 180" fill="none" xmlns="http://www.w3.org/2000/svg">
<rect width="400" height="180" fill="white"/>
<path d="M266.632 155.369L219 72.6087L178 5.55486e-06L400 1.52588e-05L400 180L308.703 180C300.155 179.972 291.766 177.681 284.381 173.357C276.995 169.032 270.873 162.828 266.632 155.369Z" fill="url(#paint0_linear_2169_3356)"/>
<path d="M302.275 90.1412L289.745 82.8494V68.3128C289.742 66.2862 289.211 64.2959 288.205 62.5414C287.199 60.7868 285.754 59.3295 284.015 58.3154L274.097 52.5413C272.354 51.5314 270.379 51 268.369 51C266.359 51 264.385 51.5314 262.642 52.5413L252.719 58.3154C250.98 59.3302 249.536 60.7877 248.53 62.5421C247.525 64.2965 246.993 66.2864 246.99 68.3128V82.8494L234.464 90.1412C232.725 91.1561 231.28 92.6136 230.275 94.368C229.269 96.1224 228.738 98.1123 228.734 100.139V111.682C228.737 113.709 229.268 115.7 230.274 117.456C231.279 119.211 232.724 120.669 234.464 121.684L244.386 127.454C246.128 128.467 248.103 129 250.114 129C252.125 129 254.1 128.467 255.842 127.454L268.334 120.185L268.367 120.209L268.404 120.185L280.897 127.454C282.639 128.467 284.614 129 286.625 129C288.635 129 290.611 128.467 292.352 127.454L302.275 121.684C304.014 120.669 305.458 119.21 306.463 117.455C307.468 115.7 307.998 113.709 308 111.682V100.139C307.997 98.1126 307.467 96.1229 306.462 94.3684C305.457 92.614 304.013 91.1563 302.275 90.1412ZM253.234 68.3128C253.235 67.3907 253.477 66.4852 253.935 65.687C254.392 64.8887 255.05 64.2257 255.842 63.7642L265.759 57.9901C266.553 57.5316 267.452 57.2904 268.367 57.2904C269.282 57.2904 270.181 57.5316 270.975 57.9901L280.897 63.7642C281.689 64.2257 282.346 64.8887 282.804 65.687C283.262 66.4852 283.503 67.3907 283.505 68.3128V79.2624L274.938 74.266C272.939 73.1055 270.672 72.4947 268.365 72.4947C266.058 72.4947 263.791 73.1055 261.791 74.266L253.234 79.2624V68.3128ZM252.719 122.005C251.926 122.466 251.027 122.708 250.112 122.708C249.196 122.708 248.297 122.466 247.504 122.005L237.586 116.217C236.795 115.754 236.138 115.09 235.68 114.291C235.222 113.492 234.98 112.586 234.978 111.663V100.139C234.98 99.2166 235.222 98.3111 235.679 97.5128C236.137 96.7146 236.794 96.0516 237.586 95.5901L246.99 90.1177V100.12C246.993 102.445 247.603 104.729 248.757 106.743C249.911 108.756 251.569 110.429 253.565 111.593L262.09 116.556L252.719 122.005ZM268.367 112.945L256.683 106.148C255.634 105.537 254.763 104.658 254.157 103.6C253.551 102.542 253.231 101.342 253.229 100.12V86.5212L264.913 79.7243C265.963 79.1151 267.153 78.7945 268.365 78.7945C269.576 78.7945 270.766 79.1151 271.816 79.7243L283.5 86.5212V100.115C283.498 101.336 283.178 102.535 282.571 103.592C281.965 104.649 281.095 105.528 280.047 106.139L268.367 112.945ZM301.756 111.682C301.755 112.604 301.514 113.51 301.057 114.309C300.6 115.108 299.943 115.772 299.153 116.235L289.23 122.005C288.437 122.466 287.538 122.708 286.623 122.708C285.707 122.708 284.808 122.466 284.015 122.005L274.667 116.556L283.192 111.593C285.187 110.428 286.844 108.755 287.997 106.741C289.15 104.728 289.759 102.445 289.763 100.12V90.1177L299.171 95.5901C299.962 96.0518 300.619 96.715 301.076 97.5133C301.533 98.3116 301.774 99.2169 301.775 100.139L301.756 111.682Z" fill="#221AFB"/>
<path d="M125.543 92.7902C125.543 93.0932 125.633 93.3894 125.799 93.6413C125.966 93.8932 126.204 94.0896 126.481 94.2055C126.759 94.3215 127.064 94.3518 127.359 94.2927C127.653 94.2336 127.924 94.0877 128.137 93.8735C128.349 93.6592 128.494 93.3863 128.552 93.0891C128.611 92.7919 128.581 92.4839 128.466 92.204C128.351 91.9241 128.156 91.6848 127.906 91.5165C127.657 91.3482 127.363 91.2583 127.062 91.2583C126.661 91.262 126.276 91.4246 125.992 91.7111C125.708 91.9976 125.547 92.3851 125.543 92.7902Z" fill="#221AFB"/>
<path d="M156.745 74.9825H154.109V88.9958H156.745V74.9825Z" fill="#221AFB"/>
<path d="M106.685 88.9911V81.0535H105.447C103.867 81.0535 102.988 82.3639 102.988 83.8816V89.0006H96.0945C95.401 89.0227 94.7105 88.8993 94.0669 88.638C93.4232 88.3767 92.8404 87.9833 92.3555 87.4828C91.4824 86.4936 91 85.2154 91 83.8911C91 82.5667 91.4824 81.2885 92.3555 80.2993L94.2718 81.9067C93.8425 82.4725 93.6182 83.1694 93.6361 83.8816C93.617 84.5998 93.8412 85.3031 94.2718 85.8755C94.4903 86.1488 94.7685 86.3676 95.0847 86.5148C95.4009 86.6619 95.7464 86.7335 96.0945 86.7239H100.348V83.8958C100.324 83.2163 100.441 82.5394 100.689 81.9075C100.938 81.2755 101.314 80.7023 101.792 80.2238C102.271 79.7453 102.843 79.3718 103.472 79.1269C104.101 78.8819 104.773 78.7708 105.447 78.8004H109.33V86.7381H118.524C118.388 86.3618 118.318 85.9647 118.318 85.5644V83.8958C118.335 83.1822 118.107 82.4847 117.673 81.9208C117.451 81.6489 117.171 81.4316 116.854 81.2854C116.536 81.1392 116.19 81.0679 115.841 81.0771C115.493 81.0669 115.148 81.1377 114.832 81.2841C114.516 81.4304 114.237 81.6483 114.018 81.9208L112.102 80.3135C113.111 79.3474 114.449 78.8087 115.841 78.8087C117.232 78.8087 118.571 79.3474 119.58 80.3135C120.473 81.2865 120.959 82.57 120.935 83.8958V85.8378C120.936 86.077 121.032 86.3059 121.2 86.4747C121.368 86.6434 121.595 86.7381 121.833 86.7381H129.124C128.988 86.3618 128.918 85.9647 128.918 85.5644V83.8958C128.935 83.1814 128.706 82.4831 128.268 81.9208C128.048 81.649 127.768 81.4317 127.451 81.2855C127.135 81.1393 126.789 81.068 126.441 81.0771C126.093 81.0669 125.748 81.1377 125.432 81.2841C125.116 81.4304 124.837 81.6483 124.618 81.9208L122.702 80.3135C123.71 79.3463 125.049 78.8069 126.441 78.8069C127.833 78.8069 129.171 79.3463 130.18 80.3135C131.074 81.286 131.562 82.5695 131.54 83.8958V85.8378C131.541 86.0762 131.636 86.3044 131.803 86.473C131.97 86.6416 132.196 86.7368 132.433 86.7381H133.073V89.0147L106.685 88.9911Z" fill="#221AFB"/>
<path d="M97.5574 92.7902C97.5574 92.384 97.3974 91.9943 97.1125 91.707C96.8276 91.4197 96.4413 91.2583 96.0384 91.2583C95.6356 91.2583 95.2492 91.4197 94.9644 91.707C94.6795 91.9943 94.5195 92.384 94.5195 92.7902C94.5195 93.1965 94.6795 93.5862 94.9644 93.8735C95.2492 94.1608 95.6356 94.3221 96.0384 94.3221C96.4413 94.3221 96.8276 94.1608 97.1125 93.8735C97.3974 93.5862 97.5574 93.1965 97.5574 92.7902Z" fill="#221AFB"/>
<path d="M167.2 78.3385C167.501 78.3385 167.794 78.2487 168.044 78.0803C168.294 77.912 168.489 77.6728 168.603 77.3928C168.718 77.1129 168.749 76.8049 168.69 76.5077C168.631 76.2106 168.487 75.9376 168.274 75.7234C168.062 75.5091 167.791 75.3632 167.497 75.3041C167.202 75.245 166.896 75.2754 166.619 75.3913C166.341 75.5073 166.104 75.7036 165.937 75.9555C165.77 76.2074 165.681 76.5036 165.681 76.8066C165.681 77.2129 165.841 77.6025 166.126 77.8898C166.411 78.1771 166.797 78.3385 167.2 78.3385Z" fill="#221AFB"/>
<path d="M100.394 91.2583C100.094 91.2583 99.8003 91.3482 99.5505 91.5165C99.3007 91.6848 99.106 91.9241 98.991 92.204C98.8761 92.4839 98.846 92.7919 98.9046 93.0891C98.9632 93.3863 99.1079 93.6592 99.3203 93.8735C99.5327 94.0877 99.8034 94.2336 100.098 94.2927C100.393 94.3518 100.698 94.3215 100.976 94.2055C101.253 94.0896 101.49 93.8932 101.657 93.6413C101.824 93.3894 101.913 93.0932 101.913 92.7902C101.91 92.3851 101.748 91.9976 101.464 91.7111C101.18 91.4246 100.796 91.262 100.394 91.2583Z" fill="#221AFB"/>
<path d="M172.977 78.7722C172.303 78.7432 171.631 78.8549 171.002 79.1004C170.373 79.3459 169.801 79.7198 169.323 80.1987C168.844 80.6776 168.468 81.2511 168.22 81.8832C167.971 82.5154 167.855 83.1926 167.878 83.8722C167.871 84.8693 168.14 85.8485 168.654 86.7003H165.19C164.843 86.7099 164.498 86.6383 164.183 86.4911C163.867 86.344 163.59 86.1252 163.372 85.8519C162.942 85.2796 162.718 84.5763 162.737 83.8581C162.719 83.1459 162.943 82.4489 163.372 81.8831L161.452 80.2758C160.578 81.2649 160.096 82.5431 160.096 83.8675C160.096 85.1918 160.578 86.47 161.452 87.4592C161.937 87.9588 162.52 88.3516 163.163 88.6128C163.807 88.874 164.497 88.998 165.19 88.977H172.977C174.321 88.977 175.609 88.4387 176.559 87.4804C177.509 86.5222 178.043 85.2226 178.043 83.8675C178.043 82.5124 177.509 81.2128 176.559 80.2545C175.609 79.2963 174.321 78.758 172.977 78.758V78.7722ZM172.977 86.7003C171.397 86.7003 170.519 85.39 170.519 83.8722C170.519 82.3544 171.397 81.0441 172.977 81.0441C174.557 81.0441 175.454 82.3544 175.454 83.8722C175.454 85.39 174.552 86.7003 172.977 86.7003Z" fill="#221AFB"/>
<path d="M208.488 78.7722C207.814 78.7432 207.142 78.8549 206.513 79.1004C205.884 79.3459 205.312 79.7198 204.833 80.1987C204.355 80.6776 203.979 81.2511 203.73 81.8832C203.482 82.5154 203.365 83.1926 203.389 83.8722C203.381 84.8694 203.65 85.849 204.164 86.7003H200.818C200.718 86.7067 200.618 86.6803 200.534 86.6251C200.45 86.5699 200.386 86.4889 200.351 86.394C200.698 85.7423 200.889 85.0173 200.907 84.2776C200.93 83.5966 200.812 82.9184 200.562 82.2854C200.312 81.6525 199.935 81.0786 199.454 80.6C198.973 80.1213 198.399 79.7483 197.769 79.5043C197.138 79.2603 196.464 79.1506 195.789 79.1822C192.91 79.1822 190.872 80.733 189.484 82.4817V80.0165H187.026V86.7192H184.161C183.726 86.7192 183.591 86.3798 183.591 85.9509V79.7101H180.955V88.2747C180.955 89.8066 180.058 91.1028 178.478 91.1028V93.3794C179.137 93.4093 179.796 93.3043 180.414 93.0705C181.032 92.8368 181.597 92.4792 182.074 92.0193C182.551 91.5595 182.932 91.0069 183.191 90.3949C183.451 89.783 183.586 89.1242 183.586 88.4585C183.704 88.6259 183.862 88.761 184.044 88.8515C184.227 88.942 184.43 88.9852 184.633 88.977H196.551C197.582 88.9601 198.566 88.5392 199.294 87.8033C199.491 88.1624 199.78 88.4611 200.132 88.6678C200.483 88.8744 200.883 88.9813 201.29 88.977H208.488C209.831 88.977 211.12 88.4387 212.07 87.4804C213.02 86.5222 213.554 85.2226 213.554 83.8675C213.554 82.5124 213.02 81.2128 212.07 80.2545C211.12 79.2963 209.831 78.758 208.488 78.758V78.7722ZM195.756 86.7003H189.83C190.999 83.8439 193.205 81.4589 195.775 81.4589C197.355 81.4589 198.257 82.7645 198.257 84.287C198.257 85.8095 197.322 86.7098 195.756 86.7098V86.7003ZM208.488 86.7098C206.908 86.7098 206.029 85.3994 206.029 83.8816C206.029 82.3639 206.908 81.0535 208.488 81.0535C210.067 81.0535 210.965 82.3639 210.965 83.8816C210.965 85.3994 210.063 86.7098 208.488 86.7098Z" fill="#221AFB"/>
<path d="M138.999 74.9825H136.363V88.9958H138.999V74.9825Z" fill="#221AFB"/>
<path d="M149.183 85.1637C149.183 86.2525 148.641 86.7145 147.902 86.7145H145.673C145.238 86.7145 145.108 86.3751 145.108 85.9462V79.7101H142.467V88.2747C142.467 89.8066 141.57 91.1028 139.99 91.1028V93.3794C140.649 93.4093 141.308 93.3043 141.926 93.0705C142.544 92.8367 143.109 92.4792 143.586 92.0193C144.064 91.5595 144.444 91.0069 144.704 90.3949C144.963 89.783 145.098 89.1242 145.098 88.4585C145.217 88.6256 145.374 88.7604 145.557 88.8509C145.74 88.9414 145.942 88.9847 146.145 88.977H148.281C150.618 88.977 151.716 87.5064 151.716 85.291V74.9683H149.183V85.1637Z" fill="#221AFB"/>
<path d="M162.849 112.988V97.4095H165.49V103.292C165.894 102.963 166.346 102.699 166.831 102.51C167.283 102.358 167.757 102.283 168.233 102.288C168.993 102.275 169.746 102.431 170.439 102.747C171.131 103.062 171.746 103.528 172.238 104.112C173.197 105.206 173.692 106.635 173.619 108.093C173.546 109.551 172.909 110.922 171.846 111.913C170.871 112.842 169.574 113.349 168.233 113.327C167.756 113.332 167.281 113.252 166.831 113.091C166.35 112.9 165.899 112.642 165.49 112.323V112.978L162.849 112.988ZM168.2 104.697C167.804 104.682 167.41 104.764 167.052 104.934C166.693 105.105 166.38 105.359 166.139 105.677C165.677 106.285 165.439 107.037 165.466 107.803C165.446 108.233 165.511 108.664 165.658 109.068C165.805 109.473 166.03 109.844 166.322 110.16C166.566 110.406 166.858 110.6 167.18 110.728C167.501 110.857 167.845 110.919 168.191 110.909C168.594 110.922 168.994 110.841 169.36 110.67C169.726 110.5 170.047 110.246 170.299 109.929C170.76 109.32 170.996 108.568 170.967 107.803C170.991 107.37 170.925 106.937 170.774 106.531C170.622 106.126 170.389 105.756 170.089 105.446C169.841 105.194 169.545 104.996 169.219 104.863C168.892 104.731 168.543 104.668 168.191 104.678" fill="#221AFB"/>
<path d="M185.82 112.988H183.18V112.333C182.771 112.651 182.319 112.91 181.838 113.101C181.388 113.262 180.914 113.342 180.436 113.337C179.676 113.352 178.922 113.196 178.229 112.881C177.536 112.565 176.922 112.098 176.431 111.512C175.473 110.416 174.976 108.987 175.045 107.527C175.113 106.067 175.743 104.692 176.8 103.693C177.787 102.769 179.089 102.262 180.436 102.279C180.912 102.273 181.386 102.348 181.838 102.5C182.323 102.689 182.775 102.953 183.18 103.283V102.642H185.82V112.988ZM180.473 104.697C180.07 104.681 179.669 104.762 179.303 104.932C178.937 105.103 178.616 105.358 178.366 105.677C177.903 106.285 177.665 107.037 177.693 107.803C177.673 108.235 177.741 108.667 177.892 109.072C178.043 109.478 178.274 109.847 178.571 110.16C178.823 110.407 179.12 110.6 179.447 110.729C179.774 110.858 180.123 110.919 180.473 110.909C180.872 110.921 181.268 110.839 181.629 110.669C181.99 110.498 182.307 110.245 182.553 109.929C183.016 109.32 183.254 108.569 183.226 107.803C183.251 107.372 183.187 106.941 183.04 106.535C182.893 106.13 182.665 105.759 182.371 105.446C182.123 105.194 181.827 104.996 181.501 104.864C181.175 104.732 180.825 104.669 180.473 104.678" fill="#221AFB"/>
<path d="M191.148 103.179C191.485 102.888 191.867 102.655 192.279 102.491C192.681 102.347 193.106 102.278 193.532 102.288C194.133 102.289 194.727 102.412 195.28 102.651C195.83 102.881 196.324 103.228 196.729 103.669C197.467 104.48 197.836 105.729 197.836 107.44V113.002H195.2V107.591C195.2 106.422 195.027 105.644 194.691 105.258C194.519 105.067 194.306 104.918 194.069 104.821C193.832 104.724 193.577 104.681 193.321 104.697C193.004 104.673 192.685 104.726 192.391 104.851C192.098 104.976 191.838 105.171 191.634 105.418C191.307 105.823 191.167 106.62 191.167 107.803V112.988H188.526V102.618H191.167L191.148 103.179Z" fill="#221AFB"/>
<path d="M205.94 106.983L210.642 112.988H207.403L204.136 108.76L203.164 109.717V112.988H200.524V97.4095H203.164V106.332L206.894 102.642H210.366L205.94 106.983Z" fill="#221AFB"/>
<path d="M104.746 112.988H102.11V112.333C101.698 112.65 101.245 112.909 100.764 113.101C100.314 113.262 99.839 113.342 99.3615 113.337C98.5993 113.35 97.8438 113.193 97.1494 112.876C96.4551 112.559 95.8393 112.09 95.3468 111.503C94.3965 110.403 93.9044 108.975 93.9732 107.518C94.042 106.061 94.6664 104.687 95.716 103.683C96.7039 102.76 98.0053 102.254 99.3521 102.269C99.8284 102.264 100.302 102.339 100.754 102.491C101.24 102.681 101.694 102.945 102.1 103.273V102.642H104.736L104.746 112.988ZM99.3988 104.697C98.9959 104.682 98.5951 104.763 98.229 104.933C97.8628 105.104 97.5415 105.358 97.291 105.677C96.8287 106.285 96.5907 107.037 96.618 107.803C96.5978 108.236 96.6658 108.668 96.8177 109.074C96.9696 109.479 97.2023 109.849 97.5013 110.16C97.7517 110.406 98.0487 110.6 98.3746 110.729C98.7006 110.857 99.0489 110.919 99.3988 110.909C99.7981 110.921 100.195 110.839 100.557 110.669C100.919 110.498 101.236 110.245 101.483 109.929C101.944 109.32 102.18 108.568 102.152 107.803C102.176 107.372 102.113 106.941 101.966 106.535C101.819 106.13 101.591 105.759 101.296 105.446C101.049 105.194 100.753 104.996 100.427 104.863C100.1 104.731 99.7504 104.668 99.3988 104.678" fill="#221AFB"/>
<path d="M110.097 97.4095H107.456V112.988H110.097V97.4095Z" fill="#221AFB"/>
<path d="M130.287 112.988H127.647V112.333C127.238 112.651 126.786 112.91 126.305 113.101C125.855 113.262 125.381 113.342 124.903 113.337C124.143 113.352 123.389 113.196 122.696 112.881C122.003 112.565 121.389 112.098 120.898 111.512C119.94 110.416 119.443 108.987 119.512 107.527C119.581 106.067 120.21 104.692 121.267 103.693C122.254 102.769 123.556 102.262 124.903 102.279C125.38 102.273 125.853 102.348 126.305 102.5C126.79 102.689 127.242 102.953 127.647 103.283V102.642H130.287V112.988ZM124.941 104.697C124.538 104.681 124.137 104.762 123.77 104.932C123.404 105.103 123.083 105.358 122.833 105.677C122.37 106.285 122.132 107.037 122.16 107.803C122.14 108.235 122.208 108.667 122.359 109.072C122.51 109.478 122.741 109.847 123.038 110.16C123.29 110.407 123.587 110.6 123.914 110.729C124.241 110.858 124.59 110.919 124.941 110.909C125.339 110.921 125.735 110.839 126.096 110.669C126.457 110.498 126.774 110.245 127.02 109.929C127.483 109.32 127.721 108.569 127.693 107.803C127.718 107.372 127.655 106.941 127.507 106.535C127.36 106.13 127.133 105.759 126.838 105.446C126.59 105.194 126.294 104.996 125.968 104.864C125.642 104.732 125.292 104.669 124.941 104.678" fill="#221AFB"/>
<path d="M134.503 97.4802C134.721 97.476 134.938 97.5155 135.141 97.5964C135.344 97.6773 135.529 97.798 135.685 97.9516C135.838 98.1022 135.958 98.2828 136.039 98.4823C136.119 98.6818 136.158 98.8958 136.153 99.1111C136.159 99.3294 136.121 99.5467 136.041 99.7494C135.96 99.9522 135.839 100.136 135.685 100.289C135.53 100.444 135.345 100.565 135.142 100.646C134.938 100.727 134.721 100.766 134.503 100.761C134.287 100.762 134.073 100.72 133.873 100.638C133.673 100.555 133.492 100.433 133.339 100.279C133.186 100.126 133.064 99.9427 132.982 99.7414C132.899 99.54 132.857 99.3242 132.858 99.1064C132.853 98.8911 132.892 98.6771 132.972 98.4776C133.052 98.2781 133.173 98.0975 133.325 97.9469C133.477 97.7942 133.658 97.6739 133.857 97.593C134.057 97.512 134.27 97.4721 134.484 97.4755" fill="#221AFB"/>
<path d="M141.172 103.179C141.509 102.888 141.891 102.655 142.303 102.491C142.705 102.347 143.13 102.279 143.556 102.288C144.157 102.289 144.752 102.412 145.304 102.651C145.854 102.881 146.348 103.228 146.753 103.669C147.491 104.48 147.865 105.729 147.865 107.44V113.002H145.224V107.591C145.224 106.422 145.051 105.644 144.715 105.258C144.543 105.067 144.33 104.918 144.093 104.821C143.856 104.724 143.601 104.681 143.346 104.697C143.028 104.673 142.709 104.726 142.416 104.851C142.122 104.977 141.863 105.171 141.658 105.418C141.331 105.823 141.191 106.62 141.191 107.803V112.988H138.55V97.4095H141.191L141.172 103.179Z" fill="#221AFB"/>
<path d="M151.87 97.4802C152.088 97.4756 152.304 97.5149 152.507 97.5958C152.709 97.6768 152.893 97.7977 153.048 97.9516C153.202 98.1017 153.322 98.2822 153.403 98.4818C153.483 98.6814 153.522 98.8957 153.516 99.1111C153.523 99.3295 153.485 99.547 153.405 99.7499C153.324 99.9528 153.203 100.137 153.048 100.289C152.894 100.444 152.71 100.566 152.507 100.647C152.305 100.728 152.088 100.767 151.87 100.761C151.654 100.762 151.44 100.72 151.241 100.638C151.041 100.555 150.859 100.433 150.706 100.279C150.553 100.126 150.432 99.9427 150.349 99.7414C150.267 99.54 150.225 99.3242 150.225 99.1064C150.22 98.8911 150.259 98.6771 150.339 98.4776C150.42 98.2781 150.54 98.0975 150.693 97.9469C150.845 97.7942 151.026 97.6739 151.225 97.593C151.424 97.512 151.637 97.4721 151.852 97.4755L151.87 97.4802ZM153.17 112.983H150.529V102.613H153.17V112.983Z" fill="#221AFB"/>
<path d="M112.607 106.752V113.016H115.243V106.643C115.243 105.229 115.967 104.8 117.112 104.8H118.589V102.444L117.023 102.42C114.042 102.42 112.607 104.07 112.607 106.738" fill="#221AFB"/>
<path d="M135.821 102.642H133.185V113.285C133.185 114.845 132.274 116.174 130.671 116.174V118.489C131.338 118.5 132.001 118.379 132.622 118.131C133.242 117.883 133.808 117.513 134.286 117.043C134.764 116.573 135.145 116.013 135.407 115.393C135.669 114.774 135.806 114.109 135.812 113.436L135.821 102.642Z" fill="#221AFB"/>
<defs>
<linearGradient id="paint0_linear_2169_3356" x1="400" y1="180" x2="209.654" y2="-28.8497" gradientUnits="userSpaceOnUse">
<stop stop-color="#D3DBE9"/>
<stop offset="0.35" stop-color="#F0F5FC"/>
</linearGradient>
</defs>
</svg>
