<?xml version="1.0" standalone="no"?>
<!DOCTYPE svg PUBLIC "-//W3C//DTD SVG 20010904//EN"
 "http://www.w3.org/TR/2001/REC-SVG-20010904/DTD/svg10.dtd">
<svg version="1.0" xmlns="http://www.w3.org/2000/svg"
 width="500.000000pt" height="500.000000pt" viewBox="0 0 500.000000 500.000000"
 preserveAspectRatio="xMidYMid meet">

<g transform="translate(0.000000,500.000000) scale(0.100000,-0.100000)"
fill="#000000" stroke="none">
<path d="M2215 4979 c-309 -23 -618 -89 -895 -191 -140 -51 -395 -179 -498
-250 -419 -290 -695 -868 -784 -1643 -16 -144 -16 -627 0 -770 76 -660 281
-1164 602 -1485 320 -321 823 -525 1485 -602 168 -20 636 -16 815 5 746 92
1315 369 1596 778 154 223 302 586 373 914 100 459 106 1000 16 1471 -69 360
-205 714 -377 977 -78 118 -243 283 -363 363 -493 327 -1230 489 -1970 433z
m570 -249 c283 -24 580 -85 800 -164 135 -49 347 -153 452 -221 110 -72 236
-198 308 -308 68 -105 172 -317 221 -452 251 -696 225 -1655 -63 -2302 -173
-388 -347 -572 -698 -744 -300 -146 -632 -229 -1045 -260 -165 -13 -480 -7
-635 11 -651 76 -1158 306 -1416 645 -453 592 -573 1756 -273 2629 50 143 161
365 235 471 136 191 286 312 530 429 233 111 453 181 710 225 100 17 159 24
369 44 82 8 394 6 505 -3z"/>
<path d="M1378 3870 c-299 -48 -555 -256 -662 -541 -73 -194 -76 -443 -8 -639
90 -259 309 -468 567 -542 105 -29 314 -32 415 -4 135 36 283 126 389 235 90
94 110 165 70 248 -37 77 -120 121 -201 108 -32 -6 -58 -23 -120 -81 -134
-125 -262 -171 -408 -146 -348 60 -516 474 -315 776 49 75 104 121 195 164 65
32 86 37 167 40 73 4 106 0 161 -17 77 -23 172 -87 218 -146 38 -48 73 -65
131 -65 123 1 221 131 183 245 -15 46 -124 162 -206 221 -77 55 -188 106 -275
128 -82 20 -226 28 -301 16z"/>
<path d="M2793 3845 c-31 -16 -60 -40 -75 -63 -22 -33 -82 -218 -289 -882 -31
-102 -85 -273 -119 -380 -34 -107 -84 -265 -110 -350 -81 -261 -205 -656 -265
-845 -31 -99 -57 -197 -57 -217 -1 -55 40 -128 90 -163 37 -25 53 -30 107 -30
54 0 69 4 107 30 55 39 75 80 137 280 28 88 130 412 227 720 96 308 197 630
224 715 26 85 75 243 110 350 80 251 169 540 188 610 12 45 12 63 3 98 -23 81
-111 151 -192 152 -19 0 -58 -11 -86 -25z"/>
<path d="M3392 2659 c-132 -20 -300 -100 -411 -195 -114 -98 -228 -287 -272
-449 -32 -118 -32 -337 -1 -454 115 -425 494 -700 900 -651 347 42 630 294
723 645 29 107 32 336 6 439 -82 325 -323 578 -619 650 -84 21 -243 28 -326
15z m209 -379 c196 -36 360 -213 389 -419 39 -276 -144 -535 -402 -570 -383
-53 -666 362 -491 719 97 198 301 308 504 270z"/>
</g>
</svg>
