<svg xmlns="http://www.w3.org/2000/svg" width="106" height="37" viewBox="0 0 106 37">
    <g fill="none" fill-rule="evenodd">
        <g fill="#000" fill-rule="nonzero">
            <g>
                <g>
                    <path d="M8.388 3.492L8.388 16.762 4.512 16.762 4.512 3.492 0 3.492 0 .035 12.9.035 12.9 3.492zM25.299 16.762L25.299 9.778 19.083 9.778 19.083 16.762 15.206 16.762 15.206.07 19.083.07 19.083 6.39 25.299 6.39 25.299.07 29.176.07 29.176 16.762zM31.549 16.762L31.549.07 42.577.07 42.577 3.457 35.258 3.457 35.258 6.635 42.544 6.635 42.544 9.883 35.258 9.883 35.258 13.34 42.544 13.34 42.544 16.797 31.549 16.797z" transform="translate(-89 -56) translate(89 56)"/>
                </g>
                <path d="M45.889 0H105V15.556H45.889z" transform="translate(-89 -56) translate(89 56)"/>
                <g>
                    <g>
                        <path d="M15.1 8.45c0 1.467-.267 2.725-.767 3.807-.533 1.048-1.2 1.956-2.066 2.62-.867.698-1.8 1.186-2.867 1.5-1.067.315-2.167.49-3.233.49H.2V.14h5.767C7.1.14 8.2.28 9.3.559c1.1.28 2.067.733 2.933 1.362.867.628 1.534 1.501 2.067 2.549.533 1.082.8 2.41.8 3.98zm-4 0c0-.942-.133-1.745-.433-2.339-.3-.628-.7-1.117-1.167-1.501-.5-.385-1.033-.629-1.667-.804-.633-.174-1.266-.244-1.933-.244H3.967v9.778H5.8c.7 0 1.367-.07 2-.245.633-.174 1.2-.454 1.7-.803.5-.384.867-.873 1.167-1.502.266-.628.433-1.431.433-2.34zM17.2 16.867L17.2.14 28.367.14 28.367 3.527 20.933 3.527 20.933 6.705 28.367 6.705 28.367 9.952 20.933 9.952 20.933 13.444 28.367 13.444 28.367 16.902 17.2 16.902zM42.833 16.867L41.6 13.584h-6.2l-1.167 3.283h-4.2L36.733.14h3.734L47.1 16.867h-4.267zm-4.3-12.292L36.5 10.337h4.033l-2-5.762zM48.967 16.867L48.967.14 52.833.14 52.833 13.34 59.033 13.34 59.033 16.867 48.967 16.867z" transform="translate(-89 -56) translate(89 56) translate(0 18.667) translate(45.667)"/>
                    </g>
                    <path d="M0 0.105H43.233V16.832H0z" transform="translate(-89 -56) translate(89 56) translate(0 18.667)"/>
                </g>
            </g>
        </g>
    </g>
</svg>
