<svg xmlns="http://www.w3.org/2000/svg" width="156.612" height="137.861" viewBox="0 0 156.612 137.861">
  <g id="Group_1" data-name="Group 1" transform="translate(-122.7 -156.419)">
    <path id="Path_1" data-name="Path 1" d="M237.519,441.335h2.052c.757,0,1.893.22,1.893,1.506a1.31,1.31,0,0,1-1.169,1.312v.017a1.364,1.364,0,0,1,1.346,1.338c0,1.48-1.329,1.7-2.069,1.7h-2.052Zm1.178,2.374h.479c.5,0,1.11-.11,1.11-.715,0-.681-.6-.733-1.135-.733H238.7Zm0,2.573h.555c.546,0,1.211-.135,1.211-.817,0-.765-.622-.883-1.211-.883H238.7Z" transform="translate(-62.381 -154.794)" fill="#50059b"/>
    <path id="Path_2" data-name="Path 2" d="M249.777,447.869h.017l1.042-3.163h1.145l-1.624,4.3c-.362.959-.622,1.9-1.8,1.9a2.885,2.885,0,0,1-.8-.117l.076-.833a1.667,1.667,0,0,0,.58.076.705.705,0,0,0,.732-.775l-1.657-4.551h1.245Z" transform="translate(-67.798 -156.625)" fill="#50059b"/>
    <path id="Path_3" data-name="Path 3" d="M268.389,442.353a3.838,3.838,0,0,0-1.514-.311,2,2,0,0,0-2.128,2.129,1.935,1.935,0,0,0,1.994,2.094,3.2,3.2,0,0,0,.774-.084v-1.531H266.27v-.925h2.372v3.162a7.387,7.387,0,0,1-1.9.3c-1.9,0-3.222-.951-3.222-2.936a2.912,2.912,0,0,1,3.222-3.137,5.8,5.8,0,0,1,1.724.243Z" transform="translate(-76.507 -154.675)" fill="#50059b"/>
    <path id="Path_4" data-name="Path 4" d="M281.208,449.039H280.14v-.588h-.016a1.81,1.81,0,0,1-1.422.689c-1.026,0-1.471-.723-1.471-1.7v-2.733h1.127v2.313c0,.53.008,1.245.732,1.245.816,0,.992-.883.992-1.438v-2.12h1.127Z" transform="translate(-83.956 -156.626)" fill="#50059b"/>
    <rect id="Rectangle_1" data-name="Rectangle 1" width="1.127" height="6.308" transform="translate(198.441 286.104)" fill="#50059b"/>
    <path id="Path_5" data-name="Path 5" d="M293.523,443.059h-.833v-.824h.833v-.606a1.324,1.324,0,0,1,1.379-1.472,4.05,4.05,0,0,1,.824.093l-.092.934a.874.874,0,0,0-.488-.151c-.379,0-.5.328-.5.664v.539h.984v.824h-.984v3.508h-1.127Z" transform="translate(-92.355 -154.154)" fill="#50059b"/>
    <rect id="Rectangle_2" data-name="Rectangle 2" width="1.178" height="5.871" transform="translate(206.368 286.542)" fill="#50059b"/>
    <path id="Path_6" data-name="Path 6" d="M311.024,444.586h1.068v.589h.017a1.618,1.618,0,0,1,1.422-.691c1.026,0,1.471.724,1.471,1.7v2.733h-1.127v-2.313c0-.529-.009-1.245-.732-1.245-.816,0-.992.883-.992,1.439v2.119h-1.127Z" transform="translate(-102.316 -156.505)" fill="#50059b"/>
    <path id="Path_7" data-name="Path 7" d="M322.1,444.07h-.833v-.824h.833v-.866l1.127-.361v1.228h1v.824h-1v2.02c0,.369.1.714.53.714a1.013,1.013,0,0,0,.513-.118l.033.891a2.95,2.95,0,0,1-.833.1,1.274,1.274,0,0,1-1.371-1.405Z" transform="translate(-107.883 -155.165)" fill="#50059b"/>
    <path id="Path_8" data-name="Path 8" d="M332.594,448.674a2.97,2.97,0,0,1-1.488.345,2.058,2.058,0,0,1-2.263-2.246,2.027,2.027,0,0,1,2.01-2.288c1.606,0,2.061,1.1,2.061,2.616H329.92a1.132,1.132,0,0,0,1.236,1.094,2.924,2.924,0,0,0,1.438-.437Zm-.757-2.347c-.034-.547-.286-1.018-.917-1.018a.982.982,0,0,0-1,1.018Z" transform="translate(-111.997 -156.505)" fill="#50059b"/>
    <path id="Path_9" data-name="Path 9" d="M339.752,444.586h1v.984h.016a1.327,1.327,0,0,1,1.186-1.086,1.223,1.223,0,0,1,.345.034v1.135a1.155,1.155,0,0,0-.5-.092c-.917,0-.917,1.144-.917,1.767v1.589h-1.127Z" transform="translate(-117.924 -156.505)" fill="#50059b"/>
    <path id="Path_10" data-name="Path 10" d="M347.193,444.586h1.068v.589h.017a1.618,1.618,0,0,1,1.422-.691c1.026,0,1.471.724,1.471,1.7v2.733h-1.127v-2.313c0-.529-.008-1.245-.732-1.245-.816,0-.992.883-.992,1.439v2.119h-1.127Z" transform="translate(-121.966 -156.505)" fill="#50059b"/>
    <path id="Path_11" data-name="Path 11" d="M358.315,444.814a3.871,3.871,0,0,1,1.506-.329c1.321,0,1.867.547,1.867,1.825v.555c0,.437.009.765.017,1.085s.025.631.051.967h-.992a5.344,5.344,0,0,1-.051-.648H360.7a1.547,1.547,0,0,1-1.337.749,1.382,1.382,0,0,1-1.514-1.287,1.272,1.272,0,0,1,.74-1.236,3.434,3.434,0,0,1,1.455-.253h.622c0-.7-.311-.934-.976-.934a2.269,2.269,0,0,0-1.338.472Zm1.321,3.381a.955.955,0,0,0,.79-.387,1.435,1.435,0,0,0,.236-.891h-.488c-.5,0-1.254.085-1.254.749,0,.37.311.53.716.53" transform="translate(-127.753 -156.505)" fill="#50059b"/>
    <path id="Path_12" data-name="Path 12" d="M368.518,444.07h-.833v-.824h.833v-.866l1.127-.361v1.228h1v.824h-1v2.02c0,.369.1.714.53.714a1.011,1.011,0,0,0,.513-.118l.033.891a2.951,2.951,0,0,1-.833.1,1.274,1.274,0,0,1-1.371-1.405Z" transform="translate(-133.1 -155.165)" fill="#50059b"/>
    <path id="Path_13" data-name="Path 13" d="M375.921,440.618h1.127v1.076h-1.127Zm0,1.867h1.127v4.332h-1.127Z" transform="translate(-137.574 -154.404)" fill="#50059b"/>
    <path id="Path_14" data-name="Path 14" d="M382.644,444.485a2.17,2.17,0,0,1,2.271,2.3,2.267,2.267,0,0,1-4.534,0,2.168,2.168,0,0,1,2.262-2.3m0,3.659c.866,0,1.093-.773,1.093-1.5a1.1,1.1,0,1,0-2.178,0c0,.715.227,1.5,1.085,1.5" transform="translate(-139.997 -156.505)" fill="#50059b"/>
    <path id="Path_15" data-name="Path 15" d="M392.247,444.586h1.068v.589h.017a1.618,1.618,0,0,1,1.422-.691c1.026,0,1.471.724,1.471,1.7v2.733H395.1v-2.313c0-.529-.008-1.245-.732-1.245-.816,0-.992.883-.992,1.439v2.119h-1.127Z" transform="translate(-146.444 -156.505)" fill="#50059b"/>
    <path id="Path_16" data-name="Path 16" d="M403.369,444.814a3.871,3.871,0,0,1,1.506-.329c1.321,0,1.867.547,1.867,1.825v.555c0,.437.009.765.017,1.085s.025.631.051.967h-.992a5.17,5.17,0,0,1-.051-.648h-.017a1.547,1.547,0,0,1-1.337.749,1.382,1.382,0,0,1-1.514-1.287,1.272,1.272,0,0,1,.74-1.236,3.434,3.434,0,0,1,1.455-.253h.622c0-.7-.311-.934-.976-.934a2.269,2.269,0,0,0-1.338.472Zm1.321,3.381a.956.956,0,0,0,.791-.387,1.435,1.435,0,0,0,.236-.891h-.488c-.5,0-1.254.085-1.254.749,0,.37.311.53.715.53" transform="translate(-152.231 -156.505)" fill="#50059b"/>
    <rect id="Rectangle_3" data-name="Rectangle 3" width="1.127" height="6.308" transform="translate(255.649 286.104)" fill="#50059b"/>
    <path id="Path_17" data-name="Path 17" d="M424.218,441.335h2.052c.757,0,1.892.22,1.892,1.506a1.309,1.309,0,0,1-1.169,1.312v.017a1.364,1.364,0,0,1,1.346,1.338c0,1.48-1.329,1.7-2.069,1.7h-2.052Zm1.178,2.374h.479c.5,0,1.11-.11,1.11-.715,0-.681-.6-.733-1.136-.733H425.4Zm0,2.573h.555c.546,0,1.211-.135,1.211-.817,0-.765-.622-.883-1.211-.883H425.4Z" transform="translate(-163.814 -154.794)" fill="#50059b"/>
    <path id="Path_18" data-name="Path 18" d="M435.119,444.814a3.869,3.869,0,0,1,1.506-.329c1.321,0,1.867.547,1.867,1.825v.555c0,.437.009.765.017,1.085s.025.631.051.967h-.992a5.17,5.17,0,0,1-.051-.648H437.5a1.547,1.547,0,0,1-1.337.749,1.382,1.382,0,0,1-1.514-1.287,1.272,1.272,0,0,1,.74-1.236,3.434,3.434,0,0,1,1.455-.253h.622c0-.7-.311-.934-.976-.934a2.269,2.269,0,0,0-1.338.472Zm1.321,3.381a.956.956,0,0,0,.791-.387,1.435,1.435,0,0,0,.236-.891h-.488c-.5,0-1.254.085-1.254.749,0,.37.311.53.715.53" transform="translate(-169.48 -156.505)" fill="#50059b"/>
    <path id="Path_19" data-name="Path 19" d="M445.5,444.586h1.068v.589h.017a1.618,1.618,0,0,1,1.422-.691c1.026,0,1.472.724,1.472,1.7v2.733h-1.127v-2.313c0-.529-.008-1.245-.732-1.245-.816,0-.992.883-.992,1.439v2.119H445.5Z" transform="translate(-175.377 -156.505)" fill="#50059b"/>
    <path id="Path_20" data-name="Path 20" d="M456.815,440.379h1.127v3.71h.016l1.346-1.733h1.328l-1.615,1.935,1.817,2.4h-1.43l-1.447-2.1h-.016v2.1h-1.127Z" transform="translate(-181.524 -154.274)" fill="#50059b"/>
    <path id="Path_21" data-name="Path 21" d="M327.522,349.8a8.09,8.09,0,0,0-5.889-2.491c-4.114,0-8.3,3.009-8.3,8.76v10.49a1.253,1.253,0,0,0,1.246,1.236h2.244a1.237,1.237,0,0,0,1.25-1.236v-10.49c0-2.774,1.787-4.034,3.565-4.034a3.434,3.434,0,0,1,2.412.949,4.206,4.206,0,0,1,1.112,3.085v10.49a1.239,1.239,0,0,0,1.245,1.236h2.227a1.238,1.238,0,0,0,1.25-1.236v-10.49c0-2.774,1.794-4.034,3.565-4.034a3.466,3.466,0,0,1,2.424.949,4.255,4.255,0,0,1,1.1,3.085v10.49a1.242,1.242,0,0,0,1.246,1.236h2.239a1.231,1.231,0,0,0,1.241-1.236v-10.49c0-5.752-4.139-8.76-8.249-8.76a8.194,8.194,0,0,0-5.922,2.491m-75.813,0a8.126,8.126,0,0,0-5.9-2.491c-4.12,0-8.291,3.009-8.291,8.76v10.49a1.237,1.237,0,0,0,1.25,1.236H241a1.249,1.249,0,0,0,1.26-1.236v-10.49c0-2.774,1.783-4.034,3.556-4.034a3.37,3.37,0,0,1,2.4.949,4.182,4.182,0,0,1,1.124,3.085v10.49a1.233,1.233,0,0,0,1.251,1.236h2.228a1.244,1.244,0,0,0,1.254-1.236v-10.49c0-2.774,1.774-4.034,3.569-4.034a3.371,3.371,0,0,1,2.391.949,4.164,4.164,0,0,1,1.124,3.085v10.49a1.239,1.239,0,0,0,1.245,1.236h2.235a1.239,1.239,0,0,0,1.242-1.236v-10.49c0-5.752-4.157-8.76-8.238-8.76a8.157,8.157,0,0,0-5.93,2.491m38.942,8.144a10.384,10.384,0,0,0,10.375,10.363,10.153,10.153,0,0,0,5.846-1.867,1.217,1.217,0,0,0,.173-1.907l-1.484-1.507a1.276,1.276,0,0,0-1.59-.148,5.45,5.45,0,0,1-2.978.958,5.724,5.724,0,0,1-5.242-3.877h14.388a1.3,1.3,0,0,0,.911-.367,1.354,1.354,0,0,0,.348-.921,12.6,12.6,0,0,0-.688-4.433,10.363,10.363,0,0,0-20.059,3.705m9.35-5.909a5.49,5.49,0,0,1,5.021,3.419h-10.07A5.573,5.573,0,0,1,300,352.033m-32.139,5.909a10.378,10.378,0,0,0,10.368,10.363,10.222,10.222,0,0,0,5.854-1.867,1.246,1.246,0,0,0,.533-.917,1.2,1.2,0,0,0-.352-.99l-1.5-1.507a1.251,1.251,0,0,0-1.573-.148,5.477,5.477,0,0,1-2.991.958,5.727,5.727,0,0,1-5.233-3.877h14.389a1.269,1.269,0,0,0,.906-.367,1.317,1.317,0,0,0,.327-.921,12.456,12.456,0,0,0-.67-4.433,10.361,10.361,0,0,0-20.056,3.705m9.891-5.909a5.437,5.437,0,0,1,5.01,3.419H272.712a5.566,5.566,0,0,1,5.041-3.419" transform="translate(-62.382 -103.709)" fill="#50059b"/>
    <path id="Path_22" data-name="Path 22" d="M246.48,431.866a.631.631,0,0,0-.2-.134.63.63,0,0,0-.486,0,.623.623,0,0,0-.2.134.65.65,0,0,0-.134.2.638.638,0,0,0,0,.488.65.65,0,0,0,.134.2.638.638,0,0,0,.2.134.63.63,0,0,0,.486,0,.646.646,0,0,0,.2-.134.635.635,0,0,0,.134-.2.644.644,0,0,0,0-.488.635.635,0,0,0-.134-.2" transform="translate(-66.671 -149.55)" fill="#50059b"/>
    <path id="Path_23" data-name="Path 23" d="M243.279,431.866a.635.635,0,0,0-.2-.134.631.631,0,0,0-.487,0,.626.626,0,0,0-.2.134.642.642,0,0,0-.134.2.633.633,0,0,0,0,.488.632.632,0,0,0,.332.331.631.631,0,0,0,.487,0,.65.65,0,0,0,.2-.134.635.635,0,0,0,.134-.2.638.638,0,0,0,0-.488.636.636,0,0,0-.134-.2" transform="translate(-64.932 -149.55)" fill="#50059b"/>
    <path id="Path_24" data-name="Path 24" d="M248.814,416.365h-1.661a.79.79,0,0,1-.222-.027.249.249,0,0,1-.144-.111.65.65,0,0,1-.078-.246,3.018,3.018,0,0,1-.024-.434v-2.115h-1.506a2.373,2.373,0,0,0-1.681.517,2.03,2.03,0,0,0-.546,1.545v1.647a1.041,1.041,0,0,1-.132.5,1.329,1.329,0,0,1-.382.432,2.061,2.061,0,0,1-.612.3,2.688,2.688,0,0,1-.814.115,3.635,3.635,0,0,1-.818-.08,2.381,2.381,0,0,1-.595-.215,1.475,1.475,0,0,1-.407-.31,1.52,1.52,0,0,1-.248-.363,1.457,1.457,0,0,1-.124-.375,1.953,1.953,0,0,1-.034-.349,2.248,2.248,0,0,1,.032-.372,3.026,3.026,0,0,1,.087-.378,2.583,2.583,0,0,1,.137-.353,1.83,1.83,0,0,1,.178-.3l-1-.541a3.053,3.053,0,0,0-.28.425,3.271,3.271,0,0,0-.222.5,3.767,3.767,0,0,0-.147.544,2.964,2.964,0,0,0-.053.557,2.542,2.542,0,0,0,.27,1.094,2.719,2.719,0,0,0,.405.589,2.593,2.593,0,0,0,.643.517,3.615,3.615,0,0,0,.924.365,5.028,5.028,0,0,0,1.254.139,3.931,3.931,0,0,0,1.35-.217,3.2,3.2,0,0,0,1.007-.573,2.464,2.464,0,0,0,.629-.811,2.154,2.154,0,0,0,.217-.933V415.59a1.741,1.741,0,0,1,.08-.582.77.77,0,0,1,.232-.345.816.816,0,0,1,.374-.166,2.733,2.733,0,0,1,.5-.041v1.456a1.735,1.735,0,0,0,.127.7,1.331,1.331,0,0,0,.334.471,1.278,1.278,0,0,0,.472.265,1.785,1.785,0,0,0,.538.083h3.206v-7h-1.266Z" transform="translate(-62.381 -138.003)" fill="#50059b"/>
    <path id="Path_25" data-name="Path 25" d="M271.657,417.53a1.649,1.649,0,0,0-.356-.43,1.8,1.8,0,0,0-.427-.271,1.968,1.968,0,0,0-.459-.139,2.83,2.83,0,0,0-.449-.038,2.374,2.374,0,0,0-.9.169,2.333,2.333,0,0,0-.729.463,2.133,2.133,0,0,0-.49.7,2.182,2.182,0,0,0-.178.884,2.068,2.068,0,0,0,.121.68,1.775,1.775,0,0,0,.39.633,2.019,2.019,0,0,0,.695.465,2.659,2.659,0,0,0,1.037.18c.094,0,.21-.007.346-.02a3.593,3.593,0,0,0,.39-.058,1.289,1.289,0,0,1-.312.4,2.3,2.3,0,0,1-.5.336,3.661,3.661,0,0,1-.66.253,4.9,4.9,0,0,1-.791.153h-.117l.117,1.039a8.265,8.265,0,0,0,1.456-.266,3.448,3.448,0,0,0,1.14-.545,2.421,2.421,0,0,0,.744-.916,3.212,3.212,0,0,0,.266-1.387v-.828a3.461,3.461,0,0,0-.09-.838,2.371,2.371,0,0,0-.244-.622m-.933,2.157a.745.745,0,0,1-.134.044c-.053.012-.11.023-.171.033s-.121.018-.185.025a1.817,1.817,0,0,1-.183.01,1.614,1.614,0,0,1-.531-.078,1.007,1.007,0,0,1-.371-.217.876.876,0,0,1-.219-.336,1.227,1.227,0,0,1-.073-.431,1.172,1.172,0,0,1,.078-.436,1.067,1.067,0,0,1,.21-.339.933.933,0,0,1,.3-.219.841.841,0,0,1,.356-.078.928.928,0,0,1,.336.063.659.659,0,0,1,.3.242,1.442,1.442,0,0,1,.209.492,3.367,3.367,0,0,1,.081.815Z" transform="translate(-78.762 -141.383)" fill="#50059b"/>
    <path id="Path_26" data-name="Path 26" d="M289.977,416.365h-6.144a3.309,3.309,0,0,1-.607-.054,2.162,2.162,0,0,1-.538-.171,2.043,2.043,0,0,0,.053-.467,2.563,2.563,0,0,0-.5-1.411,7.368,7.368,0,0,0-1.447-1.528l-.917.9q.3.239.587.514a6.481,6.481,0,0,1,.522.555,3.216,3.216,0,0,1,.373.553,1.112,1.112,0,0,1,.141.507.844.844,0,0,1-.034.243.4.4,0,0,1-.132.193.7.7,0,0,1-.28.124,2.1,2.1,0,0,1-.475.044h-1.871v1.067h1.847a3.227,3.227,0,0,0,1.006-.137,1.857,1.857,0,0,0,.675-.375,2.11,2.11,0,0,0,.649.37,2.38,2.38,0,0,0,.58.117c.011,0,.016.01.028.012a1.252,1.252,0,0,0,.19.012h7.557v-7h-1.266Z" transform="translate(-84.761 -138.003)" fill="#50059b"/>
    <rect id="Rectangle_4" data-name="Rectangle 4" width="1.267" height="7.002" transform="translate(207.75 272.432)" fill="#50059b"/>
    <path id="Path_27" data-name="Path 27" d="M325.072,427.33a.579.579,0,0,0-.44,0,.583.583,0,0,0-.178.121.552.552,0,0,0-.121.177.567.567,0,0,0,0,.435.556.556,0,0,0,.121.177.6.6,0,0,0,.178.12.579.579,0,0,0,.44,0,.6.6,0,0,0,.178-.12.555.555,0,0,0,.121-.177.557.557,0,0,0,0-.435.55.55,0,0,0-.121-.177.588.588,0,0,0-.178-.121" transform="translate(-109.523 -147.162)" fill="#50059b"/>
    <path id="Path_28" data-name="Path 28" d="M343.684,427.64a.637.637,0,0,0-.2-.133.607.607,0,0,0-.244-.049.6.6,0,0,0-.243.049.629.629,0,0,0-.332.332.635.635,0,0,0,0,.486.614.614,0,0,0,.134.2.631.631,0,0,0,.2.134.6.6,0,0,0,.243.049.608.608,0,0,0,.244-.049.63.63,0,0,0,.332-.332.629.629,0,0,0,0-.486.66.66,0,0,0-.134-.2" transform="translate(-119.481 -147.255)" fill="#50059b"/>
    <path id="Path_29" data-name="Path 29" d="M346.884,427.64a.637.637,0,0,0-.2-.133.631.631,0,0,0-.487,0,.629.629,0,0,0-.332.332.635.635,0,0,0,0,.486.621.621,0,0,0,.134.2.632.632,0,0,0,.2.134.631.631,0,0,0,.487,0,.639.639,0,0,0,.2-.134.628.628,0,0,0,.134-.2.63.63,0,0,0,0-.486.643.643,0,0,0-.134-.2" transform="translate(-121.22 -147.255)" fill="#50059b"/>
    <path id="Path_30" data-name="Path 30" d="M360.425,412.7a.638.638,0,0,0,.2.134.63.63,0,0,0,.487,0,.636.636,0,0,0,.332-.331.636.636,0,0,0,0-.487.624.624,0,0,0-.134-.2.618.618,0,0,0-.2-.135.63.63,0,0,0-.487,0,.637.637,0,0,0-.332.332.63.63,0,0,0,0,.487.635.635,0,0,0,.134.2" transform="translate(-129.056 -138.658)" fill="#50059b"/>
    <path id="Path_31" data-name="Path 31" d="M342.623,416.348h-1.579a.232.232,0,0,1-.2-.127,1.246,1.246,0,0,1-.138-.339q-.058-.212-.105-.487t-.09-.577a2.519,2.519,0,0,0-.2-.672,1.742,1.742,0,0,0-.378-.529,1.659,1.659,0,0,0-.56-.345,2.085,2.085,0,0,0-.75-.125,3.549,3.549,0,0,0-.77.076c-.228.05-.455.11-.682.177v1a2.588,2.588,0,0,1,.317-.112q.171-.049.334-.078c.108-.02.211-.034.309-.044s.181-.014.249-.014a.8.8,0,0,1,.487.136.994.994,0,0,1,.3.353,1.855,1.855,0,0,1,.168.49q.056.273.1.545a2.253,2.253,0,0,0,.088.361,2.615,2.615,0,0,0,.122.307h-3.211a3.285,3.285,0,0,1-.572-.049,2.5,2.5,0,0,1-.514-.147c.006-.055.012-.111.017-.168s.007-.114.007-.173V410.4H334.1v5.243a1.433,1.433,0,0,1-.034.341.5.5,0,0,1-.105.216.383.383,0,0,1-.185.115.988.988,0,0,1-.275.034h-.556a3.281,3.281,0,0,1-.572-.049,2.488,2.488,0,0,1-.514-.147c.006-.055.012-.111.017-.168s.007-.114.007-.173v-2.387h-1.267v2.217a1.434,1.434,0,0,1-.034.341.506.506,0,0,1-.105.216.384.384,0,0,1-.185.115.985.985,0,0,1-.275.034H324.24a.386.386,0,0,1-.3-.13.992.992,0,0,1-.193-.343,2.937,2.937,0,0,1-.122-.49q-.046-.275-.09-.564a2.347,2.347,0,0,0-.2-.694,1.746,1.746,0,0,0-.385-.529,1.624,1.624,0,0,0-.565-.336,2.207,2.207,0,0,0-.744-.117,3.464,3.464,0,0,0-.767.078c-.229.052-.458.111-.685.175v1a2.553,2.553,0,0,1,.332-.115c.114-.031.224-.056.331-.076s.208-.034.3-.044.174-.014.239-.014a.863.863,0,0,1,.5.131.937.937,0,0,1,.295.336,1.608,1.608,0,0,1,.153.451c.031.164.058.322.081.475a3.545,3.545,0,0,0,.1.485,1.665,1.665,0,0,0,.125.315h-.97a3.3,3.3,0,0,0-1.077.165,2.346,2.346,0,0,0-.828.482,2.115,2.115,0,0,0-.533.782,2.836,2.836,0,0,0-.188,1.07,2.393,2.393,0,0,0,.061.532,2.075,2.075,0,0,0,.531.982,2.145,2.145,0,0,0,.5.38,2.635,2.635,0,0,0,.67.255,3.587,3.587,0,0,0,.853.093q.166,0,.307-.012c.095-.009.189-.02.285-.034s.194-.033.295-.056l.331-.078v-.99c-.2.043-.405.078-.612.107a3.989,3.989,0,0,1-.538.044,1.887,1.887,0,0,1-.67-.107,1.326,1.326,0,0,1-.463-.288,1.1,1.1,0,0,1-.268-.419,1.488,1.488,0,0,1-.085-.5,1.629,1.629,0,0,1,.1-.589,1.1,1.1,0,0,1,.275-.419,1.148,1.148,0,0,1,.426-.248,1.736,1.736,0,0,1,.555-.083h8.849a1.6,1.6,0,0,0,.619-.107,1.2,1.2,0,0,0,.425-.292,2.284,2.284,0,0,0,.606.29,2.762,2.762,0,0,0,.83.11h1a1.6,1.6,0,0,0,.62-.107,1.194,1.194,0,0,0,.424-.292,2.289,2.289,0,0,0,.606.29,2.766,2.766,0,0,0,.831.11h7.479v-7h-1.266Z" transform="translate(-106.677 -137.986)" fill="#50059b"/>
    <rect id="Rectangle_5" data-name="Rectangle 5" width="1.267" height="7.002" transform="translate(238.48 272.432)" fill="#50059b"/>
    <path id="Path_32" data-name="Path 32" d="M395.161,417.044h-.332a.65.65,0,0,1-.241-.039.562.562,0,0,1-.169-.1.384.384,0,0,1-.1-.137.37.37,0,0,1-.032-.144.265.265,0,0,1,.091-.222.419.419,0,0,1,.26-.07,1.48,1.48,0,0,1,.2.017,2,2,0,0,1,.215.041l.092-.6a2.524,2.524,0,0,0-.348-.046c-.093-.005-.174-.008-.242-.008a1.593,1.593,0,0,0-.468.061.92.92,0,0,0-.321.168.679.679,0,0,0-.188.246.728.728,0,0,0-.061.3.886.886,0,0,0,.052.29.8.8,0,0,0,.134.251h-.454v.589h1.91Z" transform="translate(-146.99 -140.884)" fill="#50059b"/>
    <path id="Path_33" data-name="Path 33" d="M419.925,412.7a.636.636,0,0,0,.2.134.632.632,0,0,0,.487,0,.633.633,0,0,0,.331-.331.63.63,0,0,0,0-.487.631.631,0,0,0-.134-.2.623.623,0,0,0-.2-.135.632.632,0,0,0-.487,0,.642.642,0,0,0-.332.332.636.636,0,0,0,0,.487.629.629,0,0,0,.134.2" transform="translate(-161.382 -138.658)" fill="#50059b"/>
    <path id="Path_34" data-name="Path 34" d="M429.214,427.64a.636.636,0,0,0-.2-.133.631.631,0,0,0-.487,0,.632.632,0,0,0-.2.133.642.642,0,0,0-.134.2.629.629,0,0,0,0,.486.627.627,0,0,0,.134.2.634.634,0,0,0,.2.134.631.631,0,0,0,.487,0,.638.638,0,0,0,.2-.134.621.621,0,0,0,.134-.2.635.635,0,0,0,0-.486.636.636,0,0,0-.134-.2" transform="translate(-165.95 -147.255)" fill="#50059b"/>
    <path id="Path_35" data-name="Path 35" d="M406.461,413.438h-1.266v2.929h-1.253a3.193,3.193,0,0,1-.572-.05,2.46,2.46,0,0,1-.514-.146c.006-.055.012-.111.017-.169s.008-.114.008-.172v-2.388h-1.268v2.217a1.436,1.436,0,0,1-.034.342.511.511,0,0,1-.105.216.383.383,0,0,1-.185.115,1,1,0,0,1-.274.035h-5.541a3.2,3.2,0,0,1-.573-.05,2.456,2.456,0,0,1-.514-.146c.006-.055.012-.111.017-.169s.008-.114.008-.172v-5.4h-1.267v5.228a1.435,1.435,0,0,1-.034.342.511.511,0,0,1-.1.216.384.384,0,0,1-.185.115,1,1,0,0,1-.275.035h-3.094a7.086,7.086,0,0,1-1-.057,1.64,1.64,0,0,1-.6-.183.64.64,0,0,1-.29-.324,1.348,1.348,0,0,1-.076-.485,2.594,2.594,0,0,1,.027-.37c.018-.124.038-.246.061-.369l-1.126-.1c-.016.084-.031.175-.044.273s-.025.194-.037.29-.021.188-.027.275-.01.164-.01.229a2.63,2.63,0,0,0,.046.5,1.55,1.55,0,0,0,.161.448,1.383,1.383,0,0,0,.314.382,1.788,1.788,0,0,0,.509.3,3.353,3.353,0,0,0,.74.192,6.415,6.415,0,0,0,1.011.069h3.856a1.6,1.6,0,0,0,.621-.107,1.191,1.191,0,0,0,.427-.292,2.308,2.308,0,0,0,.606.29,2.374,2.374,0,0,0,.494.089.13.13,0,0,0,.02.009,1.25,1.25,0,0,0,.19.012h6.115a1.591,1.591,0,0,0,.619-.107,1.183,1.183,0,0,0,.425-.292,2.3,2.3,0,0,0,.606.29,2.753,2.753,0,0,0,.83.11h2.534Z" transform="translate(-143.234 -138.004)" fill="#50059b"/>
    <path id="Path_36" data-name="Path 36" d="M443.268,414.931a.632.632,0,0,0,.2.135.609.609,0,0,0,.244.048.6.6,0,0,0,.243-.048.638.638,0,0,0,.332-.332.63.63,0,0,0,0-.487.622.622,0,0,0-.134-.2.633.633,0,0,0-.2-.134.591.591,0,0,0-.243-.049.6.6,0,0,0-.244.049.636.636,0,0,0-.332.331.636.636,0,0,0,0,.487.632.632,0,0,0,.134.2" transform="translate(-174.064 -139.871)" fill="#50059b"/>
    <path id="Path_37" data-name="Path 37" d="M450.427,418.521a2.293,2.293,0,0,0-.17-.5,2.265,2.265,0,0,0-.287-.455,1.884,1.884,0,0,0-.41-.375,2.046,2.046,0,0,0-.533-.256,2.148,2.148,0,0,0-.658-.095,2.089,2.089,0,0,0-.568.09,1.83,1.83,0,0,0-.641.356,3.039,3.039,0,0,0-.633.756,5.314,5.314,0,0,0-.546,1.283.722.722,0,0,1-.263.395.707.707,0,0,1-.419.127h-.259a3.443,3.443,0,0,1-.618-.054,2.085,2.085,0,0,1-.546-.175q-.024-.22-.068-.451t-.1-.46c-.037-.153-.077-.3-.119-.438s-.083-.268-.121-.385l-1.233.351a3.927,3.927,0,0,1,.171.463q.073.243.124.475c.035.154.06.3.078.433a2.593,2.593,0,0,1,.027.338,2.224,2.224,0,0,1-.443,1.482,1.7,1.7,0,0,1-1.369.522,1.884,1.884,0,0,1-.717-.132,1.621,1.621,0,0,1-.551-.365,1.657,1.657,0,0,1-.355-.551,1.808,1.808,0,0,1-.127-.682,2.843,2.843,0,0,1,.025-.366,3.332,3.332,0,0,1,.068-.37,2.521,2.521,0,0,1,.11-.344,1.9,1.9,0,0,1,.148-.3l-1.013-.565a4.243,4.243,0,0,0-.256.47,4.58,4.58,0,0,0-.207.527,4.1,4.1,0,0,0-.137.541,2.916,2.916,0,0,0,.132,1.542,2.332,2.332,0,0,0,.558.86,2.72,2.72,0,0,0,.955.595,3.815,3.815,0,0,0,1.367.222,3.543,3.543,0,0,0,1.138-.173,2.856,2.856,0,0,0,.891-.485,2.647,2.647,0,0,0,.631-.749,3.09,3.09,0,0,0,.346-.97,2.232,2.232,0,0,0,.526.19,2.918,2.918,0,0,0,.512.052l.01,0c.022,0,.058,0,.087.005s.04.006.064.006h.424a1.441,1.441,0,0,0,1.257-.609,3.711,3.711,0,0,0,.295.236,1.986,1.986,0,0,0,.38.215,2.54,2.54,0,0,0,.487.153,2.915,2.915,0,0,0,.617.058,2.114,2.114,0,0,0,.855-.163,1.836,1.836,0,0,0,1.011-1.06,2.06,2.06,0,0,0,.132-.731,2.308,2.308,0,0,0-.056-.495m-1.2.909a.691.691,0,0,1-.212.285.893.893,0,0,1-.333.161,1.717,1.717,0,0,1-.773.015,2.766,2.766,0,0,1-.343-.092,2.1,2.1,0,0,1-.3-.125.8.8,0,0,1-.195-.131,3.9,3.9,0,0,1,.178-.619,2.768,2.768,0,0,1,.268-.536,1.445,1.445,0,0,1,.351-.378.716.716,0,0,1,.431-.144.807.807,0,0,1,.431.115,1.107,1.107,0,0,1,.315.285,1.271,1.271,0,0,1,.19.368,1.218,1.218,0,0,1,.063.368,1.111,1.111,0,0,1-.074.429" transform="translate(-171.172 -141.487)" fill="#50059b"/>
    <path id="Path_38" data-name="Path 38" d="M177,156.577c-8.706,1.423-15.241,6.257-17.357,8.65-2.167,2.441-6.147,6.7-7.332,16.905a22.5,22.5,0,0,0-6.146,1.177C141.051,185,133.3,188.382,128.5,196.9c-6.245,10.51-6.639,18.538-4.918,29.366a107.479,107.479,0,0,0,6.079,21.233,170.644,170.644,0,0,0,11.662,23.951c9,15.2,15.162,11.33,15.162,11.33s3.214-1.5,2.608-7.314c-.787-7.318-4.208-15.237-7.753-25.458-3.676-10.615-9.41-28.628-9.161-43.646a15.176,15.176,0,0,1,6.914.213c2.977.638,13.827,6.267,18.231,8.775,4.389,2.485,9.157,5.248,10.66,6s9.584,5.142,17.985,1.4c8.5-3.8,11.39-16.2,10.992-21.94-.426-5.931-9.2-26.056-12.387-31.049-2.946-4.645-7.724-13.344-15.709-13.344a10.621,10.621,0,0,0-1.863.158m-3,33.554c-2.086-1.209-5.535-3.129-5.535-3.129a39.562,39.562,0,0,1,2.981-18.02c.822.526,9.23,8.512,14.269,28.126-2.914-1.713-9.637-5.758-11.715-6.977" transform="translate(0)" fill="#50059b"/>
  </g>
</svg>
